PathFileType	4	(X/Y/Z)	C:\Github\BTS_project\Data\sports2d_results\test4 Exam_2026-03-06_143128_tvc2_Sports2D\test4 Exam_2026-03-06_143128_tvc2_Sports2D_px_person00.trc
DataRate	CameraRate	NumFrames	NumMarkers	Units	OrigDataRate	OrigDataStartFrame	OrigNumFrames
30.0	30.0	5	22	m	30.0	160	321
Frame#	Time	Hip			RHip			RKnee			RAnkle			RBigToe			RSmallToe			RHeel			LHip			LKnee			LAnkle			LBigToe			LSmallToe			LHeel			Neck			Head			Nose			RShoulder			RElbow			RWrist			LShoulder			LElbow			LWrist			
		X1	Y1	Z1	X2	Y2	Z2	X3	Y3	Z3	X4	Y4	Z4	X5	Y5	Z5	X6	Y6	Z6	X7	Y7	Z7	X8	Y8	Z8	X9	Y9	Z9	X10	Y10	Z10	X11	Y11	Z11	X12	Y12	Z12	X13	Y13	Z13	X14	Y14	Z14	X15	Y15	Z15	X16	Y16	Z16	X17	Y17	Z17	X18	Y18	Z18	X19	Y19	Z19	X20	Y20	Z20	X21	Y21	Z21	X22	Y22	Z22
160	5.35	330.84383524653344	722.0979457423673	0.0	300.4267026650845	724.68799573093	0.0	308.60403737082663	838.8361250825272	0.0	326.40986376191245	933.4421516559075	0.0	329.43891659228046	967.0182562480564	0.0	313.0266793928067	963.2127252567375	0.0	336.9530958790706	944.5934149461061	0.0	363.533658968894	721.6250440372206	0.0	371.9845008374665	825.4906736868896	0.0	359.1154494495822	874.4560969713663	0.0	372.4831352682019	923.2939346631626	0.0	383.01964106773534	908.9425396878034	0.0	351.45812927388084	881.1480326605306	0.0	313.0817713713022	563.821704520994	0.0	298.1205759228104	479.7348973211219	0.0	302.24282140595193	538.1028614362116	0.0	256.92812491094924	586.2940065759647	0.0	224.0481401307564	654.6902019044869	0.0	198.37663772621957	723.4822623255357	0.0	374.06918262457066	573.3158132198963	0.0	409.0836928470216	643.8371601312606	0.0	428.17960279874404	710.3717665913662	0.0
161	5.383437499999999	330.8198268544578	721.4017117575287	0.0	299.9404603795991	724.0002621688604	0.0	308.6408026283159	838.3499246397134	0.0	326.4300744222171	933.4136138201619	0.0	329.42832853898614	967.264157570961	0.0	313.0446570913871	963.1103296624522	0.0	336.8799525036671	944.2758563075018	0.0	363.48983296981976	721.1089066341757	0.0	372.14706200571624	825.5479114164177	0.0	359.0587407259759	874.7448226662332	0.0	372.4032983913214	923.5491199209578	0.0	382.9930193895859	909.4387875651724	0.0	351.4746994624414	880.9043027068309	0.0	313.1224016959586	564.2414709677676	0.0	298.11103075552927	480.04974725025437	0.0	302.7232685154884	538.489016945754	0.0	256.8616061520132	587.0127879141268	0.0	224.07301397809067	655.536465523641	0.0	198.38827145633482	724.3201889692831	0.0	374.08443304914533	573.8190048446306	0.0	409.36574050853864	644.6804722906975	0.0	428.32238331584915	710.6935471792916	0.0
162	5.416874999999999	330.87191348408805	720.9659395278536	0.0	299.6656016966032	723.7256859447581	0.0	308.640082068486	838.1124808177972	0.0	326.4289914705161	933.4090760325206	0.0	329.4752956615732	967.5497195697079	0.0	313.04936362905386	963.1553181920515	0.0	336.8993730898155	943.9492893899412	0.0	363.58818000886777	720.8345207595224	0.0	372.4446863094869	825.1631982172668	0.0	359.0723885167456	875.1598289928497	0.0	372.4263441998311	924.0998236579351	0.0	382.897031146834	910.5410538889779	0.0	351.60560751475055	881.0627018800243	0.0	313.0707859679328	564.7392503816861	0.0	297.7723957833459	480.4716623769879	0.0	303.1436329384314	538.6493295617015	0.0	256.7026013170165	587.8643935347812	0.0	224.0684698929453	656.2816391812298	0.0	198.39776019892182	725.540464008619	0.0	373.9887153272691	574.5164978928636	0.0	409.5955370873443	645.091785073086	0.0	428.74227847024093	711.2411610980175	0.0
163	5.450312499999999	331.0517076217398	721.4459759889146	0.0	299.7217577354181	724.0539035463108	0.0	308.5966866200534	838.2103055594148	0.0	326.34605864783254	933.4420224505628	0.0	329.66160617319633	967.6480756801373	0.0	313.1305308485734	963.2964775404791	0.0	337.0111579505384	943.9847934340178	0.0	363.7114594615853	720.9888045194645	0.0	372.64669752071904	824.7818679623704	0.0	359.0387665820642	875.4873944443805	0.0	372.39239942364185	924.5388600814798	0.0	382.6165343264185	911.2192069715129	0.0	351.6729924846511	881.3834234756498	0.0	312.8660753869905	565.1566171772814	0.0	297.3301936283295	481.04177298968153	0.0	303.1225107876553	538.7638662774193	0.0	256.58625633674035	588.3449687401275	0.0	224.26198049338763	656.4396521897015	0.0	198.4549078973837	726.1389030868345	0.0	373.7147426938358	574.9591135880476	0.0	409.7133922320346	645.2289010644936	0.0	428.92270627066216	711.5438414194746	0.0
164	5.483749999999999	331.321313331672	722.4395793044899	0.0	300.02158836179285	724.7229652057772	0.0	308.5425153274074	838.4424279210127	0.0	326.2466504744265	933.6020608316729	0.0	329.9473295548717	967.6219262847542	0.0	313.3615724653166	963.3602836475403	0.0	337.04317548540047	944.1288582095466	0.0	363.68353029837056	721.3419922793637	0.0	372.59279410845824	824.7583778828088	0.0	358.9534832478147	875.6446720645285	0.0	372.2661921803919	924.682917190732	0.0	382.3586515339879	911.3557604887477	0.0	351.6741278417049	881.5765600997681	0.0	312.57560302489753	565.7516237966227	0.0	297.19184023434116	481.46793042854483	0.0	302.9076991242439	539.0801172924124	0.0	256.62303341453327	588.3698469241768	0.0	224.64680576795212	656.5473319262412	0.0	198.42911400626463	726.3207611059937	0.0	373.470783641377	575.0273376959324	0.0	409.7083113954746	645.5136013509409	0.0	428.7259796179628	711.75249657566	0.0
